<mxfile host="65bd71144e">
    <diagram id="iwivZN6cpM5oW49p-JX3" name="Page-1">
        <mxGraphModel dx="680" dy="565" grid="1" gridSize="10" guides="1" tooltips="1" connect="1" arrows="1" fold="1" page="1" pageScale="1" pageWidth="827" pageHeight="1169" background="#ffffff" math="0" shadow="0">
            <root>
                <mxCell id="0"/>
                <mxCell id="1" parent="0"/>
                <mxCell id="5" value="" style="shape=cylinder3;whiteSpace=wrap;html=1;boundedLbl=1;backgroundOutline=1;size=15;sketch=1;hachureGap=4;jiggle=2;curveFitting=1;fontFamily=Architects Daughter;fontSource=https%3A%2F%2Ffonts.googleapis.com%2Fcss%3Ffamily%3DArchitects%2BDaughter;fontSize=20;fillColor=#e51400;fontColor=#ffffff;strokeColor=#B20000;fillStyle=zigzag;" vertex="1" parent="1">
                    <mxGeometry x="530" y="250" width="60" height="40" as="geometry"/>
                </mxCell>
                <mxCell id="6" value="" style="endArrow=none;html=1;sketch=1;hachureGap=4;jiggle=2;curveFitting=1;fontFamily=Architects Daughter;fontSource=https%3A%2F%2Ffonts.googleapis.com%2Fcss%3Ffamily%3DArchitects%2BDaughter;fontSize=16;rounded=0;strokeColor=#000000;" edge="1" parent="1">
                    <mxGeometry width="50" height="50" relative="1" as="geometry">
                        <mxPoint x="559.5" y="490" as="sourcePoint"/>
                        <mxPoint x="559.5" y="280" as="targetPoint"/>
                    </mxGeometry>
                </mxCell>
                <mxCell id="8" value="" style="shape=cube;whiteSpace=wrap;html=1;boundedLbl=1;backgroundOutline=1;darkOpacity=0.05;darkOpacity2=0.1;sketch=1;hachureGap=4;jiggle=2;fillStyle=hachure;curveFitting=1;fontFamily=Architects Daughter;fontSource=https%3A%2F%2Ffonts.googleapis.com%2Fcss%3Ffamily%3DArchitects%2BDaughter;fontSize=20;size=40;" vertex="1" parent="1">
                    <mxGeometry x="70" y="390" width="160" height="90" as="geometry"/>
                </mxCell>
                <mxCell id="4" value="" style="shape=cylinder3;whiteSpace=wrap;html=1;boundedLbl=1;backgroundOutline=1;size=15;sketch=1;hachureGap=4;jiggle=2;curveFitting=1;fontFamily=Architects Daughter;fontSource=https%3A%2F%2Ffonts.googleapis.com%2Fcss%3Ffamily%3DArchitects%2BDaughter;fontSize=20;fillColor=#0050ef;fontColor=#ffffff;strokeColor=#001DBC;fillStyle=zigzag;" vertex="1" parent="1">
                    <mxGeometry x="120" y="380" width="60" height="40" as="geometry"/>
                </mxCell>
                <mxCell id="12" value="" style="group" vertex="1" connectable="0" parent="1">
                    <mxGeometry x="30" y="95" width="134.32" height="55" as="geometry"/>
                </mxCell>
                <mxCell id="9" value="" style="html=1;whiteSpace=wrap;shape=isoCube2;backgroundOutline=1;isoAngle=15;sketch=1;hachureGap=4;jiggle=2;fillStyle=cross-hatch;curveFitting=1;fontFamily=Architects Daughter;fontSource=https%3A%2F%2Ffonts.googleapis.com%2Fcss%3Ffamily%3DArchitects%2BDaughter;fontSize=20;fillColor=#647687;fontColor=#ffffff;strokeColor=#314354;" vertex="1" parent="12">
                    <mxGeometry x="45.17214568647695" width="42.728049579329614" height="49.06810833914182" as="geometry"/>
                </mxCell>
                <mxCell id="10" value="" style="shape=parallelogram;perimeter=parallelogramPerimeter;whiteSpace=wrap;html=1;fixedSize=1;sketch=1;hachureGap=4;jiggle=2;fillStyle=hachure;curveFitting=1;fontFamily=Architects Daughter;fontSource=https%3A%2F%2Ffonts.googleapis.com%2Fcss%3Ffamily%3DArchitects%2BDaughter;fontSize=20;fillColor=#6a00ff;fontColor=#ffffff;strokeColor=#3700CC;rotation=-15;" vertex="1" parent="12">
                    <mxGeometry x="80.60224439765707" y="8.178018056523637" width="51.273659495195545" height="24.53405416957091" as="geometry"/>
                </mxCell>
                <mxCell id="11" value="" style="shape=parallelogram;perimeter=parallelogramPerimeter;whiteSpace=wrap;html=1;fixedSize=1;sketch=1;hachureGap=4;jiggle=2;fillStyle=hachure;curveFitting=1;fontFamily=Architects Daughter;fontSource=https%3A%2F%2Ffonts.googleapis.com%2Fcss%3Ffamily%3DArchitects%2BDaughter;fontSize=20;fillColor=#6a00ff;fontColor=#ffffff;strokeColor=#3700CC;rotation=-15;" vertex="1" parent="12">
                    <mxGeometry x="2.444096107147345" y="24.53405416957091" width="51.273659495195545" height="24.53405416957091" as="geometry"/>
                </mxCell>
                <mxCell id="13" value="" style="group" vertex="1" connectable="0" parent="1">
                    <mxGeometry x="530" y="90" width="127.18" height="50" as="geometry"/>
                </mxCell>
                <mxCell id="14" value="" style="html=1;whiteSpace=wrap;shape=isoCube2;backgroundOutline=1;isoAngle=15;sketch=1;hachureGap=4;jiggle=2;fillStyle=cross-hatch;curveFitting=1;fontFamily=Architects Daughter;fontSource=https%3A%2F%2Ffonts.googleapis.com%2Fcss%3Ffamily%3DArchitects%2BDaughter;fontSize=20;fillColor=#647687;fontColor=#ffffff;strokeColor=#314354;" vertex="1" parent="13">
                    <mxGeometry x="42.770946161451306" width="40.45676999329319" height="44.60737121740166" as="geometry"/>
                </mxCell>
                <mxCell id="15" value="" style="shape=parallelogram;perimeter=parallelogramPerimeter;whiteSpace=wrap;html=1;fixedSize=1;sketch=1;hachureGap=4;jiggle=2;fillStyle=hachure;curveFitting=1;fontFamily=Architects Daughter;fontSource=https%3A%2F%2Ffonts.googleapis.com%2Fcss%3Ffamily%3DArchitects%2BDaughter;fontSize=20;fillColor=#6a00ff;fontColor=#ffffff;strokeColor=#3700CC;rotation=-15;" vertex="1" parent="13">
                    <mxGeometry x="76.31769983989003" y="7.434561869566943" width="48.548123991951826" height="22.30368560870083" as="geometry"/>
                </mxCell>
                <mxCell id="16" value="" style="shape=parallelogram;perimeter=parallelogramPerimeter;whiteSpace=wrap;html=1;fixedSize=1;sketch=1;hachureGap=4;jiggle=2;fillStyle=hachure;curveFitting=1;fontFamily=Architects Daughter;fontSource=https%3A%2F%2Ffonts.googleapis.com%2Fcss%3Ffamily%3DArchitects%2BDaughter;fontSize=20;fillColor=#6a00ff;fontColor=#ffffff;strokeColor=#3700CC;rotation=-15;" vertex="1" parent="13">
                    <mxGeometry x="2.3141761681581245" y="22.30368560870083" width="48.548123991951826" height="22.30368560870083" as="geometry"/>
                </mxCell>
                <mxCell id="18" value="" style="group" vertex="1" connectable="0" parent="1">
                    <mxGeometry x="280" y="30" width="137.18" height="50" as="geometry"/>
                </mxCell>
                <mxCell id="19" value="" style="html=1;whiteSpace=wrap;shape=isoCube2;backgroundOutline=1;isoAngle=15;sketch=1;hachureGap=4;jiggle=2;fillStyle=cross-hatch;curveFitting=1;fontFamily=Architects Daughter;fontSource=https%3A%2F%2Ffonts.googleapis.com%2Fcss%3Ffamily%3DArchitects%2BDaughter;fontSize=20;fillColor=#647687;fontColor=#ffffff;strokeColor=#314354;" vertex="1" parent="18">
                    <mxGeometry x="46.133970706305156" width="43.63783383928259" height="44.60737121740166" as="geometry"/>
                </mxCell>
                <mxCell id="20" value="" style="shape=parallelogram;perimeter=parallelogramPerimeter;whiteSpace=wrap;html=1;fixedSize=1;sketch=1;hachureGap=4;jiggle=2;fillStyle=hachure;curveFitting=1;fontFamily=Architects Daughter;fontSource=https%3A%2F%2Ffonts.googleapis.com%2Fcss%3Ffamily%3DArchitects%2BDaughter;fontSize=20;fillColor=#6a00ff;fontColor=#ffffff;strokeColor=#3700CC;rotation=-15;" vertex="1" parent="18">
                    <mxGeometry x="82.31846252583829" y="7.434561869566943" width="52.36540060713911" height="22.30368560870083" as="geometry"/>
                </mxCell>
                <mxCell id="21" value="" style="shape=parallelogram;perimeter=parallelogramPerimeter;whiteSpace=wrap;html=1;fixedSize=1;sketch=1;hachureGap=4;jiggle=2;fillStyle=hachure;curveFitting=1;fontFamily=Architects Daughter;fontSource=https%3A%2F%2Ffonts.googleapis.com%2Fcss%3Ffamily%3DArchitects%2BDaughter;fontSize=20;fillColor=#6a00ff;fontColor=#ffffff;strokeColor=#3700CC;rotation=-15;" vertex="1" parent="18">
                    <mxGeometry x="2.4961368670225785" y="22.30368560870083" width="52.36540060713911" height="22.30368560870083" as="geometry"/>
                </mxCell>
                <mxCell id="24" value="" style="endArrow=none;dashed=1;html=1;dashPattern=1 3;strokeWidth=2;sketch=1;hachureGap=4;jiggle=2;curveFitting=1;strokeColor=#FF0000;fontFamily=Architects Daughter;fontSource=https%3A%2F%2Ffonts.googleapis.com%2Fcss%3Ffamily%3DArchitects%2BDaughter;fontSize=16;exitX=0;exitY=1;exitDx=0;exitDy=0;entryX=0;entryY=0;entryDx=0;entryDy=15;entryPerimeter=0;fillColor=#a20025;rounded=0;" edge="1" parent="1" source="10" target="5">
                    <mxGeometry width="50" height="50" relative="1" as="geometry">
                        <mxPoint x="320" y="320" as="sourcePoint"/>
                        <mxPoint x="370" y="270" as="targetPoint"/>
                    </mxGeometry>
                </mxCell>
                <mxCell id="26" value="" style="endArrow=none;dashed=1;html=1;dashPattern=1 3;strokeWidth=2;sketch=1;hachureGap=4;jiggle=2;curveFitting=1;strokeColor=#FF0000;fontFamily=Architects Daughter;fontSource=https%3A%2F%2Ffonts.googleapis.com%2Fcss%3Ffamily%3DArchitects%2BDaughter;fontSize=16;exitX=0.675;exitY=1.031;exitDx=0;exitDy=0;fillColor=#a20025;rounded=0;exitPerimeter=0;" edge="1" parent="1" source="19" target="5">
                    <mxGeometry width="50" height="50" relative="1" as="geometry">
                        <mxPoint x="124.6507384242052" y="143.9293832090201" as="sourcePoint"/>
                        <mxPoint x="540" y="275" as="targetPoint"/>
                    </mxGeometry>
                </mxCell>
                <mxCell id="27" value="" style="endArrow=none;dashed=1;html=1;dashPattern=1 3;strokeWidth=2;sketch=1;hachureGap=4;jiggle=2;curveFitting=1;strokeColor=#FF0000;fontFamily=Architects Daughter;fontSource=https%3A%2F%2Ffonts.googleapis.com%2Fcss%3Ffamily%3DArchitects%2BDaughter;fontSize=16;exitX=0.5;exitY=1;exitDx=0;exitDy=0;fillColor=#a20025;rounded=0;exitPerimeter=0;entryX=0.667;entryY=0;entryDx=0;entryDy=0;entryPerimeter=0;" edge="1" parent="1" source="14" target="5">
                    <mxGeometry width="50" height="50" relative="1" as="geometry">
                        <mxPoint x="375.58950854782097" y="85.99019972514111" as="sourcePoint"/>
                        <mxPoint x="558.9278179594448" y="260" as="targetPoint"/>
                    </mxGeometry>
                </mxCell>
                <mxCell id="28" value="" style="endArrow=none;dashed=1;html=1;dashPattern=1 3;strokeWidth=2;sketch=1;hachureGap=4;jiggle=2;curveFitting=1;strokeColor=#001DBC;fontFamily=Architects Daughter;fontSource=https%3A%2F%2Ffonts.googleapis.com%2Fcss%3Ffamily%3DArchitects%2BDaughter;fontSize=16;entryX=0.145;entryY=0;entryDx=0;entryDy=4.35;entryPerimeter=0;fillColor=#0050ef;rounded=0;" edge="1" parent="1" target="4">
                    <mxGeometry width="50" height="50" relative="1" as="geometry">
                        <mxPoint x="125" y="140" as="sourcePoint"/>
                        <mxPoint x="540" y="275" as="targetPoint"/>
                    </mxGeometry>
                </mxCell>
                <mxCell id="29" value="" style="endArrow=none;dashed=1;html=1;dashPattern=1 3;strokeWidth=2;sketch=1;hachureGap=4;jiggle=2;curveFitting=1;strokeColor=#001DBC;fontFamily=Architects Daughter;fontSource=https%3A%2F%2Ffonts.googleapis.com%2Fcss%3Ffamily%3DArchitects%2BDaughter;fontSize=16;entryX=0.855;entryY=0;entryDx=0;entryDy=4.35;entryPerimeter=0;fillColor=#0050ef;rounded=0;exitX=0.5;exitY=1;exitDx=0;exitDy=0;exitPerimeter=0;" edge="1" parent="1" source="19" target="4">
                    <mxGeometry width="50" height="50" relative="1" as="geometry">
                        <mxPoint x="135" y="150" as="sourcePoint"/>
                        <mxPoint x="138.70000000000005" y="394.35" as="targetPoint"/>
                    </mxGeometry>
                </mxCell>
                <mxCell id="30" value="" style="endArrow=none;dashed=1;html=1;dashPattern=1 3;strokeWidth=2;sketch=1;hachureGap=4;jiggle=2;curveFitting=1;strokeColor=#001DBC;fontFamily=Architects Daughter;fontSource=https%3A%2F%2Ffonts.googleapis.com%2Fcss%3Ffamily%3DArchitects%2BDaughter;fontSize=16;entryX=0.855;entryY=0;entryDx=0;entryDy=4.35;entryPerimeter=0;fillColor=#0050ef;rounded=0;exitX=0.5;exitY=1;exitDx=0;exitDy=0;exitPerimeter=0;" edge="1" parent="1" source="14">
                    <mxGeometry width="50" height="50" relative="1" as="geometry">
                        <mxPoint x="357.95288762594646" y="84.60737121740169" as="sourcePoint"/>
                        <mxPoint x="181.29999999999995" y="394.35" as="targetPoint"/>
                    </mxGeometry>
                </mxCell>
                <mxCell id="34" value="&lt;font color=&quot;#ff0000&quot;&gt;Base Fixe&lt;/font&gt;" style="text;html=1;strokeColor=none;fillColor=none;align=center;verticalAlign=middle;whiteSpace=wrap;rounded=0;sketch=1;hachureGap=4;jiggle=2;fillStyle=hachure;curveFitting=1;fontFamily=Architects Daughter;fontSource=https%3A%2F%2Ffonts.googleapis.com%2Fcss%3Ffamily%3DArchitects%2BDaughter;fontSize=20;" vertex="1" parent="1">
                    <mxGeometry x="563.59" y="310" width="60" height="30" as="geometry"/>
                </mxCell>
                <mxCell id="35" value="&lt;font color=&quot;#3333ff&quot;&gt;Base Mobile (dock)&lt;/font&gt;" style="text;html=1;strokeColor=none;fillColor=none;align=center;verticalAlign=middle;whiteSpace=wrap;rounded=0;sketch=1;hachureGap=4;jiggle=2;fillStyle=hachure;curveFitting=1;fontFamily=Architects Daughter;fontSource=https%3A%2F%2Ffonts.googleapis.com%2Fcss%3Ffamily%3DArchitects%2BDaughter;fontSize=20;" vertex="1" parent="1">
                    <mxGeometry x="90" y="500" width="130" height="30" as="geometry"/>
                </mxCell>
                <mxCell id="36" value="&lt;font color=&quot;#333333&quot;&gt;Satellites GNSS&lt;/font&gt;" style="text;html=1;strokeColor=none;fillColor=none;align=center;verticalAlign=middle;whiteSpace=wrap;rounded=0;sketch=1;hachureGap=4;jiggle=2;fillStyle=hachure;curveFitting=1;fontFamily=Architects Daughter;fontSource=https%3A%2F%2Ffonts.googleapis.com%2Fcss%3Ffamily%3DArchitects%2BDaughter;fontSize=20;" vertex="1" parent="1">
                    <mxGeometry x="170.00000000000006" y="30" width="136" height="30" as="geometry"/>
                </mxCell>
                <mxCell id="37" value="" style="endArrow=classic;html=1;rounded=0;sketch=1;hachureGap=4;jiggle=2;curveFitting=1;strokeColor=#FCD600;strokeWidth=5;fontFamily=Architects Daughter;fontSource=https%3A%2F%2Ffonts.googleapis.com%2Fcss%3Ffamily%3DArchitects%2BDaughter;fontSize=16;fontColor=#333333;entryX=1;entryY=0.5;entryDx=0;entryDy=0;entryPerimeter=0;fillColor=#008a00;" edge="1" parent="1" target="4">
                    <mxGeometry width="50" height="50" relative="1" as="geometry">
                        <mxPoint x="560" y="290" as="sourcePoint"/>
                        <mxPoint x="190" y="400" as="targetPoint"/>
                        <Array as="points"/>
                    </mxGeometry>
                </mxCell>
                <mxCell id="39" value="Corrections" style="text;html=1;strokeColor=none;fillColor=none;align=center;verticalAlign=middle;whiteSpace=wrap;rounded=0;labelBackgroundColor=none;sketch=1;hachureGap=4;jiggle=2;fillStyle=hachure;curveFitting=1;fontFamily=Architects Daughter;fontSource=https%3A%2F%2Ffonts.googleapis.com%2Fcss%3Ffamily%3DArchitects%2BDaughter;fontSize=20;fontColor=#000000;" vertex="1" parent="1">
                    <mxGeometry x="380" y="360" width="60" height="30" as="geometry"/>
                </mxCell>
            </root>
        </mxGraphModel>
    </diagram>
</mxfile>